<svg xmlns="http://www.w3.org/2000/svg" viewBox="0 0 64 64">
  <defs>
    <linearGradient id="g" x1="0" x2="1" y1="0" y2="1">
      <stop offset="0%" stop-color="#e8d5a3"/>
      <stop offset="100%" stop-color="#5a8c7a"/>
    </linearGradient>
  </defs>
  <rect width="64" height="64" rx="18" fill="#0a0a0c"/>
  <circle cx="32" cy="30" r="20" fill="url(#g)" opacity="0.96"/>
  <path d="M16 29c1.8-11.6 9-16 16-16s14.2 4.4 16 16" fill="none" stroke="#0a0a0c" stroke-width="4" stroke-linecap="round"/>
  <path d="M18 28c2.5-8.2 8.6-11.5 14-11.5s11.5 3.3 14 11.5" fill="none" stroke="#0a0a0c" stroke-width="3" stroke-linecap="round" opacity="0.8"/>
  <path d="M20 33c0-3 2.5-5.5 5.5-5.5h12c3 0 5.5 2.5 5.5 5.5v10.5c0 3.5-2.6 6.5-6 6.5H26c-3.4 0-6-3-6-6.5V33Z" fill="#0a0a0c"/>
  <circle cx="24" cy="34" r="2" fill="#e8d5a3"/>
  <circle cx="40" cy="34" r="2" fill="#e8d5a3"/>
  <path d="M24 42c1.7 1.5 3.9 2.5 8 2.5s6.3-1 8-2.5" stroke="#e8d5a3" stroke-width="2" fill="none" stroke-linecap="round"/>
  <path d="M22 22c1.7-1 3.9-1.5 6-1.5 3.5 0 5.5 1 8 1 2.3 0 4.5-.5 6-1.5" stroke="#0a0a0c" stroke-width="4" fill="none" stroke-linecap="round"/>
  <path d="M18 21.5c1.2-1 2.6-1.5 4-1.5 2.6 0 4.4 1.2 6.5 1.2 2 0 3.4-1.2 5.4-1.2 1.4 0 2.8.4 4 1.5" stroke="#0a0a0c" stroke-width="3" fill="none" stroke-linecap="round" opacity="0.8"/>
</svg>
